<svg xmlns="http://www.w3.org/2000/svg" xmlns:xlink="http://www.w3.org/1999/xlink" viewBox="0 0 40 40"><path fill="none" stroke="#5e9c76" d="M23,17.32S31.23,2.12,36.8,7.9"/><path fill="#bae0bd" d="M38.5,15.39a3.65,3.65,0,0,1-2.25-1.68l-.17-.31-.34,0-.21,0a1.58,1.58,0,0,1-1.18-.6,3.71,3.71,0,0,1-.86-2.55l.05-.48-.48-.07a3.22,3.22,0,0,1-2.43-1.88A7.18,7.18,0,0,1,34.34,6.5a3.14,3.14,0,0,1,2.4,1.06C37.38,8.23,38.42,10.14,38.5,15.39Z"/><path fill="#5e9c76" d="M34.34,7h0a2.66,2.66,0,0,1,2,.9c.55.59,1.45,2.24,1.6,6.76a2.87,2.87,0,0,1-1.3-1.19l-.33-.61-.69.1h-.14a1.1,1.1,0,0,1-.81-.43A3.2,3.2,0,0,1,34,10.37l.1-1-1-.13A2.6,2.6,0,0,1,31.28,8a6.22,6.22,0,0,1,3.06-1m0-1A8.06,8.06,0,0,0,30,7.71a3.84,3.84,0,0,0,3,2.55c-.15,1.36.82,3.7,2.54,3.7l.28,0A4.37,4.37,0,0,0,39,16c0-1.25,0-6.75-1.89-8.79A3.65,3.65,0,0,0,34.34,6Z"/><path fill="none" stroke="#5e9c76" d="M20.64,19.59S31.87,7,28.88,4"/><path fill="#ffc49c" d="M4.23,38.5a2.77,2.77,0,0,1-2.34-1.35,2.65,2.65,0,0,1-.07-2.65l11.46-22a5.45,5.45,0,0,1,4.85-3,5.32,5.32,0,0,1,2.14.45,20.71,20.71,0,0,1,6.09,3.68,20.72,20.72,0,0,1,3.68,6.09,5.45,5.45,0,0,1-2.5,7L5.5,38.18A2.74,2.74,0,0,1,4.23,38.5Z"/><path fill="#a16a4a" d="M18.13,9v1a4.83,4.83,0,0,1,1.95.41A20.27,20.27,0,0,1,26,14a20.27,20.27,0,0,1,3.58,5.94,5,5,0,0,1-2.28,6.35l-22,11.46a2.25,2.25,0,0,1-1,.27,2.27,2.27,0,0,1-1.91-1.11,2.13,2.13,0,0,1-.05-2.16l11.46-22A5,5,0,0,1,18.13,10V9m0,0a6,6,0,0,0-5.29,3.22l-11.46,22A3.24,3.24,0,0,0,4.23,39a3.24,3.24,0,0,0,1.5-.38l22-11.46a5.94,5.94,0,0,0,2.73-7.63,21.61,21.61,0,0,0-3.78-6.25,21.61,21.61,0,0,0-6.25-3.78A5.85,5.85,0,0,0,18.13,9Z"/><path fill="#bae0bd" d="M28.12,9.38A3.2,3.2,0,0,1,26.23,7l-.06-.48-.48.05h-.23a3.67,3.67,0,0,1-2.52-1.08,1.44,1.44,0,0,1-.38-1.19l0-.34-.31-.17A3.63,3.63,0,0,1,20.61,1.5c5.25.08,7.16,1.12,7.83,1.75C30.65,5.32,28.79,8.42,28.12,9.38Z"/><path fill="#5e9c76" d="M21.34,2c4.69.16,6.28,1.15,6.76,1.6,1.72,1.6.57,4-.14,5.1a2.6,2.6,0,0,1-1.23-1.84l-.13-1-1,.1h-.18a3.16,3.16,0,0,1-2.14-.9.93.93,0,0,1-.26-.79l.1-.69-.61-.33A2.87,2.87,0,0,1,21.34,2M20.06,1H20a4.37,4.37,0,0,0,2.06,3.2C21.81,6,24,7,25.45,7h.28a3.84,3.84,0,0,0,2.55,3s3.5-4.3.5-7.1C26.78,1,21.42,1,20.06,1Z"/><path fill="none" stroke="#a16a4a" d="M3.9 30.77L6.47 33.35M11.85 29.05L15.48 32.68M9.33 20.11L13.23 24.01M21.03 21.72L23.86 24.55M13.66 12.02L17.15 15.5"/></svg>